<svg width="20" height="20" viewBox="0 0 20 20" fill="none" xmlns="http://www.w3.org/2000/svg">
<g clip-path="url(#clip0_738_901)">
<path d="M14.717 19.4479H5.28188C4.02757 19.4465 2.82502 18.9476 1.93808 18.0607C1.05113 17.1737 0.552212 15.9712 0.550781 14.7169V5.28177C0.552212 4.02745 1.05113 2.82492 1.93808 1.93799C2.82502 1.05107 4.02757 0.552181 5.28188 0.550781H14.717C15.9714 0.552181 17.1739 1.05107 18.0608 1.93799C18.9478 2.82492 19.4467 4.02745 19.4481 5.28177V14.7169C19.4467 15.9712 18.9478 17.1738 18.0608 18.0607C17.1739 18.9476 15.9713 19.4465 14.717 19.4479ZM5.28188 1.33527C4.23556 1.33644 3.23243 1.75261 2.49256 2.49247C1.75269 3.23232 1.33651 4.23544 1.33531 5.28177V14.7169C1.33652 15.7632 1.75271 16.7664 2.49257 17.5062C3.23244 18.246 4.23557 18.6622 5.28188 18.6634H14.717C15.7634 18.6622 16.7665 18.246 17.5064 17.5062C18.2462 16.7663 18.6624 15.7632 18.6636 14.7169V5.28177C18.6624 4.23544 18.2462 3.23231 17.5063 2.49246C16.7665 1.7526 15.7633 1.33644 14.717 1.33527H5.28188Z" fill="white"/>
<path d="M9.99967 14.8314C9.04405 14.8314 8.10989 14.548 7.31533 14.0171C6.52076 13.4862 5.90147 12.7316 5.53577 11.8487C5.17007 10.9658 5.07438 9.99433 5.2608 9.05708C5.44723 8.11982 5.9074 7.2589 6.58311 6.58317C7.25883 5.90744 8.11975 5.44726 9.057 5.26082C9.99425 5.07438 10.9657 5.17005 11.8486 5.53574C12.7315 5.90143 13.4861 6.5207 14.017 7.31526C14.548 8.10982 14.8313 9.04397 14.8314 9.99959C14.8299 11.2806 14.3204 12.5087 13.4146 13.4146C12.5088 14.3204 11.2807 14.8299 9.99967 14.8314ZM9.99967 5.95246C9.19919 5.95244 8.41669 6.18979 7.75111 6.63451C7.08553 7.07922 6.56677 7.71131 6.26044 8.45085C5.9541 9.19039 5.87395 10.0042 6.03011 10.7893C6.18627 11.5744 6.57173 12.2955 7.13776 12.8615C7.70378 13.4276 8.42493 13.813 9.21003 13.9692C9.99512 14.1253 10.8089 14.0452 11.5484 13.7388C12.288 13.4325 12.9201 12.9138 13.3648 12.2482C13.8095 11.5826 14.0468 10.8001 14.0468 9.99962C14.0456 8.92661 13.6188 7.89789 12.8601 7.13916C12.1014 6.38043 11.0727 5.95367 9.99967 5.95246Z" fill="white"/>
<path d="M15.0061 5.93819C14.7279 5.93817 14.456 5.85566 14.2247 5.70109C13.9934 5.54652 13.8131 5.32684 13.7067 5.06981C13.6002 4.81279 13.5724 4.52997 13.6266 4.25712C13.6809 3.98427 13.8149 3.73365 14.0116 3.53694C14.2084 3.34023 14.459 3.20628 14.7318 3.15202C15.0047 3.09775 15.2875 3.12562 15.5445 3.23209C15.8015 3.33856 16.0212 3.51885 16.1758 3.75017C16.3303 3.98149 16.4128 4.25344 16.4128 4.53163C16.4124 4.90456 16.264 5.26209 16.0003 5.52578C15.7366 5.78947 15.3791 5.93779 15.0061 5.93819ZM15.0061 3.90945C14.8831 3.90945 14.7628 3.94594 14.6605 4.0143C14.5582 4.08266 14.4784 4.17982 14.4313 4.2935C14.3843 4.40718 14.3719 4.53227 14.3959 4.65295C14.4199 4.77364 14.4792 4.88449 14.5662 4.9715C14.6532 5.05851 14.764 5.11777 14.8847 5.14178C15.0054 5.16579 15.1305 5.15347 15.2442 5.10639C15.3579 5.05931 15.455 4.97957 15.5234 4.87727C15.5918 4.77496 15.6283 4.65468 15.6283 4.53163C15.6281 4.36669 15.5625 4.20855 15.4458 4.09191C15.3292 3.97527 15.1711 3.90965 15.0061 3.90945Z" fill="white"/>
</g>
<defs>
<clipPath id="clip0_738_901">
<rect width="20" height="20" fill="white"/>
</clipPath>
</defs>
</svg>
