<svg width="20" height="20" viewBox="0 0 20 20" fill="none" xmlns="http://www.w3.org/2000/svg">
<g clip-path="url(#clip0_737_893)">
<path d="M2.7 0.166016C1.96668 0.166016 1.3 0.432695 0.8 0.932695C0.26668 1.46602 0 2.13266 0 2.83266C0 3.56598 0.3 4.23266 0.8 4.73266C1.3 5.23266 2 5.53266 2.66668 5.49934C2.66668 5.49934 2.7 5.49934 2.73336 5.49934C3.40004 5.49934 4.03336 5.23266 4.53336 4.73266C5.03336 4.23266 5.33336 3.56598 5.33336 2.83266C5.36668 2.13266 5.06668 1.46598 4.56668 0.965977C4.06668 0.432656 3.4 0.166016 2.7 0.166016ZM4.06668 4.26602C3.7 4.6327 3.2 4.86602 2.66668 4.8327C2.16668 4.8327 1.63336 4.6327 1.26668 4.26602C0.86668 3.89934 0.66668 3.36602 0.66668 2.8327C0.66668 2.29937 0.86668 1.79937 1.26668 1.39937C1.63336 1.0327 2.13336 0.832695 2.7 0.832695C3.2 0.832695 3.7 1.0327 4.06668 1.39937C4.46668 1.79937 4.66668 2.29937 4.66668 2.8327C4.66668 3.36602 4.46668 3.89934 4.06668 4.26602Z" fill="white"/>
<path d="M4.00066 6.16602H1.30066C0.767344 6.16602 0.333984 6.59934 0.333984 7.16602V18.8327C0.333984 19.366 0.800664 19.8327 1.33398 19.8327H4.00066C4.53398 19.8327 5.00066 19.366 5.00066 18.866V7.16602C5.00066 6.63266 4.53398 6.16602 4.00066 6.16602ZM4.33398 18.866C4.33398 19.0327 4.1673 19.166 4.00066 19.166H1.33398C1.1673 19.166 1.00066 18.9993 1.00066 18.8327V7.16602C1.00066 6.99934 1.13398 6.8327 1.30066 6.8327H4.00066C4.16734 6.8327 4.33398 6.99937 4.33398 7.16602V18.866Z" fill="white"/>
<path d="M15.3328 5.83203H14.6328C13.3328 5.83203 12.0995 6.39871 11.2995 7.29871V6.83203C11.2995 6.49871 10.9662 6.16535 10.6328 6.16535H7.29949C6.99949 6.16535 6.63281 6.43203 6.63281 6.79867V19.232C6.63281 19.5987 6.99949 19.832 7.29949 19.832H10.9662C11.2662 19.832 11.6329 19.5987 11.6329 19.232V12.032C11.6329 10.932 12.4329 10.0653 13.4662 10.0653C13.9995 10.0653 14.4995 10.2653 14.8662 10.632C15.1995 10.932 15.3329 11.3987 15.3329 11.9987V19.1654C15.3329 19.4987 15.6662 19.832 15.9995 19.832H19.3329C19.6662 19.832 19.9995 19.4987 19.9995 19.1654V10.5654C19.9995 7.89871 17.9662 5.83203 15.3328 5.83203ZM19.3328 19.132L19.2995 19.1654H16.0328L15.9995 11.9987C15.9995 11.1987 15.7995 10.5987 15.3662 10.1654C14.8662 9.66539 14.1995 9.39871 13.4995 9.39871C12.0995 9.43203 10.9995 10.5654 10.9995 12.032V19.1654H7.33281V6.83203H10.6328L10.6661 6.86535V8.96535L11.5661 8.06535L11.5995 8.03203C12.2661 7.09871 13.4328 6.49871 14.6661 6.49871H15.3661C17.5995 6.49871 19.3328 8.29871 19.3328 10.5654V19.132Z" fill="white"/>
</g>
<defs>
<clipPath id="clip0_737_893">
<rect width="20" height="20" fill="white"/>
</clipPath>
</defs>
</svg>
