<svg width="129" height="128" viewBox="0 0 129 128" fill="none" xmlns="http://www.w3.org/2000/svg">
<path d="M128.033 64C128.033 28.6538 99.3794 0 64.0332 0C28.687 0 0.0332031 28.6538 0.0332031 64C0.0332031 99.3462 28.687 128 64.0332 128C99.3794 128 128.033 99.3462 128.033 64Z" fill="url(#paint0_linear_717_885)"/>
<path d="M29.3209 35.9992C35.3671 29.9516 43.4087 26.6221 51.9606 26.6221H75.8631C84.3509 26.6221 92.5521 29.8832 98.5926 35.8467C104.737 41.9114 108.124 50.0157 108.124 58.6389C108.124 67.262 104.794 75.231 98.7466 81.2786C92.6989 87.3262 84.6588 90.6571 76.1069 90.6571H64.1043V79.1406H75.9087C87.2414 79.1406 96.5772 70.03 96.6086 58.6973C96.6399 47.3661 87.431 38.1386 76.1069 38.1386H52.0248C40.933 38.1386 31.9378 47.1209 31.9136 58.2127C31.8879 69.5896 36.5473 73.0631 53.1921 84.4128L64.1043 90.6871V106.622L40.5795 91.1104C39.1984 90.1996 37.8686 89.2104 36.5986 88.15C34.1342 86.0918 34.3694 86.3299 29.3209 81.28C23.2733 75.2324 19.9424 67.1922 19.9424 58.6403C19.9424 50.0884 23.2733 42.0482 29.3209 36.0006V35.9992Z" fill="white"/>
<path d="M64.041 75.3681C64.041 66.6167 71.1362 59.5214 79.8876 59.5214C71.1362 59.5214 64.041 52.4262 64.041 43.6748C64.041 52.4262 56.9458 59.5214 48.1943 59.5214C56.9458 59.5214 64.041 66.6167 64.041 75.3681Z" fill="white"/>
<defs>
<linearGradient id="paint0_linear_717_885" x1="128.033" y1="64" x2="0.0332031" y2="64" gradientUnits="userSpaceOnUse">
<stop stop-color="#874EFF"/>
<stop offset="1" stop-color="#C83FFF"/>
</linearGradient>
</defs>
</svg>
