<svg width="20" height="20" viewBox="0 0 20 20" fill="none" xmlns="http://www.w3.org/2000/svg">
<path fill-rule="evenodd" clip-rule="evenodd" d="M17.8587 3.86719C18.3662 3.86788 18.8532 4.06999 19.2121 4.42886C19.5708 4.7878 19.7721 5.27478 19.7726 5.78224V15.4267C19.7721 15.9342 19.5707 16.4212 19.2121 16.7801C18.8532 17.139 18.3662 17.3411 17.8587 17.3418H2.24123C1.73359 17.3412 1.24678 17.1391 0.887847 16.7801C0.528922 16.4212 0.326705 15.9344 0.326172 15.4267V5.78224C0.326705 5.27461 0.528912 4.78783 0.887847 4.42886C1.24678 4.06993 1.73362 3.86777 2.24123 3.86719H17.8587ZM10.2923 12.6675C10.2252 12.7263 10.1392 12.7596 10.05 12.7591C9.96085 12.7591 9.87451 12.7264 9.80764 12.6675L7.01937 10.2053L1.57794 16.4049C1.77234 16.5368 2.00294 16.6101 2.24123 16.6104H17.8587C18.1027 16.61 18.3381 16.533 18.5354 16.3949L13.0928 10.193L10.2923 12.6675ZM1.25969 5.12118C1.12913 5.31498 1.0578 5.54518 1.05758 5.78224V15.4267C1.0577 15.559 1.08111 15.6892 1.12346 15.812L6.46998 9.72066L1.25969 5.12118ZM13.6422 9.70838L18.9809 15.7919C19.019 15.675 19.0411 15.552 19.0412 15.4267V5.78224C19.041 5.54514 18.9697 5.315 18.8391 5.12118L13.6422 9.70838ZM2.24123 4.59859C2.10701 4.59874 1.9747 4.62203 1.8504 4.66559L10.05 11.9048L18.2495 4.66671C18.125 4.62293 17.9932 4.59879 17.8587 4.59859H2.24123Z" fill="white"/>
</svg>
